<svg width="32" height="28" viewBox="0 0 32 28" fill="none" xmlns="http://www.w3.org/2000/svg">
<path d="M10.6667 26.8333C12.1394 26.8333 13.3333 25.7886 13.3333 24.5C13.3333 23.2113 12.1394 22.1666 10.6667 22.1666C9.19391 22.1666 8 23.2113 8 24.5C8 25.7886 9.19391 26.8333 10.6667 26.8333Z" stroke="white" stroke-width="2" stroke-linecap="round" stroke-linejoin="round"/>
<path d="M26.6667 26.8333C28.1394 26.8333 29.3333 25.7886 29.3333 24.5C29.3333 23.2113 28.1394 22.1666 26.6667 22.1666C25.1939 22.1666 24 23.2113 24 24.5C24 25.7886 25.1939 26.8333 26.6667 26.8333Z" stroke="white" stroke-width="2" stroke-linecap="round" stroke-linejoin="round"/>
<path d="M7.55992 6.99996H30.6666L28.4266 16.7883C28.3047 17.3254 27.9707 17.8079 27.4832 18.1513C26.9957 18.4947 26.3857 18.6771 25.7599 18.6666H11.6666C11.0155 18.6715 10.3849 18.4677 9.89366 18.0937C9.40243 17.7198 9.08454 17.2015 8.99992 16.6366L6.97325 3.19663C6.88921 2.63574 6.57515 2.12066 6.08952 1.74724C5.60389 1.37382 4.97976 1.16748 4.33325 1.16663H1.33325" stroke="white" stroke-width="2" stroke-linecap="round" stroke-linejoin="round"/>
</svg>
